# Blender v2.83.19 OBJ File: ''
# www.blender.org
mtllib untitled.mtl
o DYN_MESH_05
v -0.849288 -1.197139 0.021839
v -0.814928 -1.197139 0.021839
v -0.849288 -1.197139 -0.012520
v -0.883648 -1.197139 0.021839
v -0.849288 -1.197139 0.056199
v -0.814928 0.357410 0.021839
v -0.849288 0.357410 -0.012520
v -0.883648 0.357410 0.021839
v -2.604672 -1.268909 0.021840
v -2.564490 -1.268909 0.021840
v -2.604672 -1.268909 -0.018342
v -2.644853 -1.268909 0.021840
v -2.604672 -1.268909 0.062021
v -2.644853 0.355659 0.021840
v 0.906094 -1.197139 0.021839
v 0.906094 -1.197139 -0.012520
v 0.940454 -1.197139 0.021839
v 0.871735 -1.197139 0.021839
v 0.906094 -1.197139 0.056199
v 0.906094 0.357410 -0.012520
v 0.940454 0.357410 0.021839
v 0.906094 0.357410 0.056199
v -0.849288 0.357410 0.056199
v -2.564490 0.355659 0.021839
v -2.604672 0.355659 -0.018342
v -2.604672 0.355659 0.062021
v 0.871735 0.357410 0.021839
v 2.671808 0.236657 -0.039947
v 2.671808 0.236657 -0.074307
v 2.671808 0.271017 -0.039947
v 2.671808 0.202298 -0.039947
v 2.671808 0.236657 -0.005588
v -2.604671 0.202298 -0.039947
v -2.604671 0.271017 -0.039947
v -2.604671 0.236657 -0.074307
v -2.604671 0.236657 -0.005588
v 0.906095 0.236657 -0.074307
v 0.906095 0.271017 -0.039947
v 0.906095 0.202298 -0.039947
v 0.906095 0.236657 -0.005588
v -0.849288 0.236657 -0.074307
v -0.849288 0.271017 -0.039947
v -0.849288 0.202298 -0.039947
v -0.849288 0.236657 -0.005588
v 2.671808 -1.206218 -0.039947
v 2.671808 -1.206218 -0.074307
v 2.671808 -1.171859 -0.039947
v 2.671808 -1.240578 -0.039947
v 2.671808 -1.206218 -0.005588
v -2.604671 -1.240578 -0.039948
v -2.604671 -1.171859 -0.039948
v -2.604671 -1.206218 -0.074307
v -2.604671 -1.206218 -0.005588
v 0.906095 -1.206218 -0.074307
v 0.906095 -1.171859 -0.039947
v 0.906095 -1.240578 -0.039947
v 0.906095 -1.206218 -0.005588
v -0.849288 -1.206218 -0.074307
v -0.849288 -1.171859 -0.039947
v -0.849288 -1.240578 -0.039947
v -0.849288 -1.206218 -0.005588
v 0.802991 -1.197139 0.021839
v 0.802991 -1.197139 -0.012520
v 0.837351 -1.197139 0.021839
v 0.768632 -1.197139 0.021839
v 0.802991 -1.197139 0.056199
v 0.802991 0.357410 -0.012520
v 0.768632 0.357410 0.021839
v 0.837351 0.357410 0.021839
v 0.802991 0.357410 0.056199
v -0.952392 -1.268909 0.021840
v -0.952392 -1.268909 -0.018342
v -0.912210 -1.268909 0.021840
v -0.992573 -1.268909 0.021840
v -0.952392 -1.268909 0.062021
v -0.992573 0.355659 0.021840
v -0.912210 0.355659 0.021839
v -0.952392 0.355659 -0.018342
v -0.952392 0.355659 0.062021
v 2.558374 -1.197139 0.021839
v 2.558374 -1.197139 -0.012520
v 2.592734 -1.197139 0.021839
v 2.524014 -1.197139 0.021839
v 2.558374 -1.197139 0.056199
v 2.558374 0.357410 -0.012520
v 2.592734 0.357410 0.021839
v 2.524014 0.357410 0.021839
v 2.558374 0.357410 0.056199
v -0.849522 0.235331 -0.008969
v -2.570312 0.235331 -0.008969
v -2.570312 -1.197139 -0.008969
v -0.849522 -1.197139 -0.008969
v 0.906034 0.235331 -0.008969
v -0.849056 0.235331 -0.008969
v -0.849056 -1.197139 -0.008969
v 0.906034 -1.197139 -0.008969
v 2.627118 -1.197139 -0.008969
v 2.627118 0.235331 -0.008969
v 0.906153 -1.197139 -0.008969
v 0.906153 0.235331 -0.008969
v -2.604672 -1.268909 -0.018342
v -2.644853 -1.268909 0.021840
v -2.604671 -1.206218 -0.005588
v -2.604671 -1.206218 -0.005588
v -2.604671 -1.171859 -0.039948
v -2.604671 -1.171859 -0.039948
v -2.604671 -1.171859 -0.039948
v -2.564490 -1.268909 0.021840
v -2.604672 -1.268909 0.062021
v -2.604671 0.202298 -0.039947
v -2.604671 0.202298 -0.039947
v -2.604671 0.202298 -0.039947
v -0.849288 0.202298 -0.039947
v -2.604671 0.236657 -0.074307
v -2.604671 0.236657 -0.074307
v -0.849288 0.236657 -0.074307
v -0.952392 -1.268909 -0.018342
v -0.992573 -1.268909 0.021840
v -0.952392 -1.268909 0.062021
v -0.912210 -1.268909 0.021840
v -0.883648 -1.197139 0.021839
v -0.849288 -1.197139 0.056199
v -0.814928 -1.197139 0.021839
v -0.814928 -1.197139 0.021839
v -0.814928 -1.197139 0.021839
v 0.906095 0.202298 -0.039947
v 0.906095 0.236657 -0.074307
v -0.849288 -1.206218 -0.074307
v 0.906095 -1.206218 -0.074307
v 0.906095 0.236657 -0.005588
v -0.849288 0.236657 -0.005588
v 0.906095 -1.206218 -0.005588
v -0.849288 -1.206218 -0.005588
v 0.906095 0.271017 -0.039947
v -0.849288 0.271017 -0.039947
v 0.906095 -1.240578 -0.039947
v -0.849288 -1.240578 -0.039947
v 0.802991 -1.197139 0.056199
v 0.768632 -1.197139 0.021839
v 0.837351 0.357410 0.021839
v 0.837351 0.357410 0.021839
v 0.837351 -1.197139 0.021839
v 0.837351 -1.197139 0.021839
v 0.837351 -1.197139 0.021839
v 0.906094 -1.197139 -0.012520
v 0.871735 -1.197139 0.021839
v 0.906094 -1.197139 0.056199
v 0.940454 -1.197139 0.021839
v 0.940454 -1.197139 0.021839
v 0.940454 -1.197139 0.021839
v 2.671808 0.202298 -0.039947
v 2.671808 0.202298 -0.039947
v 2.671808 0.236657 -0.005588
v 2.671808 0.236657 -0.005588
v 2.558374 -1.197139 0.056199
v 2.524014 -1.197139 0.021839
v 2.558374 -1.197139 -0.012520
v 2.592734 0.357410 0.021839
v 2.592734 0.357410 0.021839
v 2.592734 -1.197139 0.021839
v 2.592734 -1.197139 0.021839
v 2.592734 -1.197139 0.021839
v 2.671808 0.271017 -0.039947
v 2.671808 0.271017 -0.039947
v 2.671808 0.271017 -0.039947
v 2.671808 -1.171859 -0.039947
v 2.671808 -1.171859 -0.039947
v 2.671808 -1.171859 -0.039947
v -2.604671 0.271017 -0.039947
v -2.604671 0.271017 -0.039947
v -2.604671 0.271017 -0.039947
v -2.604671 0.236657 -0.005588
v -2.604671 0.236657 -0.005588
v -2.604671 -1.240578 -0.039948
v -2.604671 -1.240578 -0.039948
v -2.604671 -1.240578 -0.039948
v -2.604671 -1.206218 -0.074307
v -2.604671 -1.206218 -0.074307
v -0.849288 -1.171859 -0.039947
v -0.849288 -1.197139 -0.012520
v -0.814928 0.357410 0.021839
v -0.814928 0.357410 0.021839
v 0.906095 -1.171859 -0.039947
v 0.802991 -1.197139 -0.012520
v 0.940454 0.357410 0.021839
v 0.940454 0.357410 0.021839
v 2.671808 -1.206218 -0.005588
v 2.671808 -1.206218 -0.005588
v 2.671808 -1.240578 -0.039947
v 2.671808 -1.240578 -0.039947
v 2.671808 0.236657 -0.074307
v 2.671808 0.236657 -0.074307
v 2.671808 -1.206218 -0.074307
v 2.671808 -1.206218 -0.074307
vt -0.038681 -2.000000
vt 0.000000 -2.038681
vt -0.038681 -2.000000
vt -0.000000 -1.961319
vt 0.000000 -2.038681
vt 0.000000 -2.000000
vt 0.000000 -2.038681
vt -0.038681 -2.000000
vt -0.000000 -1.961319
vt -0.000000 -1.961319
vt 0.000000 -2.000000
vt 0.500000 -1.000000
vt 0.500000 -1.000000
vt 0.750000 -1.000000
vt 0.500000 -1.000000
vt 0.500000 -1.000000
vt 0.750000 -1.000000
vt 0.500000 -1.000000
vt -0.250000 -1.000000
vt 0.000000 -1.000000
vt 0.500000 -1.000000
vt -0.250000 -1.000000
vt 0.000000 -1.000000
vt 0.038681 -2.000000
vt 0.038681 -2.000000
vt 0.038681 -2.000000
vt 0.750000 -1.000000
vt 0.500000 -1.000000
vt 0.500000 -1.000000
vt 0.750000 -1.000000
vt 0.500000 -1.000000
vt 0.500000 -1.000000
vt 0.500000 -1.000000
vt 0.500000 -1.000000
vt 0.500000 -1.000000
vt 0.500000 -1.000000
vt 0.500000 -1.000000
vt 0.500000 -1.000000
vt 0.000000 -1.000000
vt -0.250000 -1.000000
vt -0.250000 -1.000000
vt 0.000000 -1.000000
vt -0.250000 -1.000000
vt -0.250000 -1.000000
vt 0.500000 -1.000000
vt 0.000000 -1.000000
vt 0.000000 -1.000000
vt 0.500000 -1.000000
vt 0.000000 -1.000000
vt 0.000000 -1.000000
vt 0.500000 -1.000000
vt 0.500000 -1.000000
vt 0.750000 -1.000000
vt 0.750000 -1.000000
vt 0.500000 -1.000000
vt 0.500000 -1.000000
vt 0.000000 -1.000000
vt 0.000000 -1.000000
vt -0.038681 -2.000000
vt 0.000000 -2.038681
vt -0.038681 -2.000000
vt -0.000000 -1.961319
vt 0.000000 -2.038681
vt 0.000000 -2.000000
vt 0.000000 -2.038681
vt -0.038681 -2.000000
vt -0.000000 -1.961319
vt -0.000000 -1.961319
vt 0.000000 -2.000000
vt 0.038681 -2.000000
vt 0.038681 -2.000000
vt 0.038681 -2.000000
vt 0.250000 -2.000000
vt 0.500000 -1.000000
vt 0.250000 -1.000000
vt 0.000000 -2.000000
vt 0.500000 -2.000000
vt 0.500000 -2.000000
vt 0.500000 -2.000000
vt 0.250000 -2.000000
vt 0.000000 -2.000000
vt 0.000000 -1.000000
vt 0.500000 -1.000000
vt -0.250000 -1.000000
vt 0.750000 -1.000000
vt 0.750000 -1.000000
vt 0.750000 -2.000000
vt -0.250000 -2.000000
vt -0.250000 -2.000000
vt 0.750000 -2.000000
vt 0.500000 -1.000000
vt 0.500000 -1.000000
vt 0.500000 -1.000000
vt 0.500000 -1.000000
vt -0.250000 -1.000000
vt -0.250000 -1.000000
vt 0.000000 -1.000000
vt 0.000000 -1.000000
vt 0.500000 -1.000000
vt 0.500000 -1.000000
vt 0.750000 -1.000000
vt 0.750000 -1.000000
vt 0.500000 -1.000000
vt 0.500000 -1.000000
vt 0.000000 -1.000000
vt 0.000000 -1.000000
vt 0.250000 -2.000000
vt 0.500000 -1.000000
vt 0.250000 -1.000000
vt 0.000000 -2.000000
vt 0.500000 -2.000000
vt 0.500000 -2.000000
vt 0.500000 -2.000000
vt 0.250000 -2.000000
vt 0.000000 -2.000000
vt 0.000000 -1.000000
vt 0.500000 -1.000000
vt 0.750000 -1.000000
vt -0.250000 -1.000000
vt 0.750000 -1.000000
vt 0.750000 -2.000000
vt -0.250000 -2.000000
vt -0.250000 -2.000000
vt 0.750000 -2.000000
vt 0.250000 -2.000000
vt 0.500000 -1.000000
vt 0.250000 -1.000000
vt 0.000000 -2.000000
vt 0.500000 -2.000000
vt 0.500000 -2.000000
vt 0.500000 -2.000000
vt 0.250000 -2.000000
vt 0.000000 -2.000000
vt 0.000000 -1.000000
vt 0.500000 -1.000000
vt 0.750000 -1.000000
vt -0.250000 -1.000000
vt 0.750000 -1.000000
vt 0.750000 -2.000000
vt -0.250000 -2.000000
vt -0.250000 -2.000000
vt 0.750000 -2.000000
vt 0.500000 -1.000000
vt 0.500000 -1.000000
vt 0.500000 -1.000000
vt 0.500000 -1.000000
vt -0.250000 -1.000000
vt -0.250000 -1.000000
vt 0.000000 -1.000000
vt 0.000000 -1.000000
vt 0.500000 -1.000000
vt 0.500000 -1.000000
vt 0.750000 -1.000000
vt 0.750000 -1.000000
vt 0.500000 -1.000000
vt 0.500000 -1.000000
vt 0.000000 -1.000000
vt 0.000000 -1.000000
vt 0.250000 -2.000000
vt 0.500000 -1.000000
vt 0.250000 -1.000000
vt 0.000000 -2.000000
vt 0.500000 -2.000000
vt 0.500000 -2.000000
vt 0.500000 -2.000000
vt 0.250000 -2.000000
vt 0.000000 -2.000000
vt 0.000000 -1.000000
vt 0.500000 -1.000000
vt 0.750000 -1.000000
vt -0.250000 -1.000000
vt 0.750000 -1.000000
vt 0.750000 -2.000000
vt -0.250000 -2.000000
vt -0.250000 -2.000000
vt 0.750000 -2.000000
vt 0.500000 -2.000000
vt 0.500000 -2.000000
vt 0.250000 -2.000000
vt 0.750000 -2.000000
vt 0.500000 -2.000000
vt 0.500000 -2.000000
vt 0.250000 -2.000000
vt 0.750000 -2.000000
vt 0.000000 -2.000000
vt -0.250000 -2.000000
vt 0.000000 -2.000000
vt -0.250000 -2.000000
vt 0.001499 -1.998002
vt 0.001499 1.998002
vt 2.998502 1.998002
vt 2.998502 -1.998002
vt 0.001498 1.998002
vt 0.001498 -1.998002
vt 2.998502 1.998002
vt 2.998502 -1.998002
vt 0.001499 -1.998002
vt 0.001499 1.998002
vt 2.998502 1.998002
vt 2.998502 -1.998002
vn -1.0000 0.0000 0.0000
vn 0.0000 0.5773 0.8165
vn -0.8165 0.5773 0.0000
vn 0.0000 0.0000 -1.0000
vn 0.0000 0.0000 1.0000
vn 0.0000 -1.0000 0.0000
vn 0.0000 0.5773 -0.8165
vn 0.8165 0.5773 0.0000
vn 1.0000 0.0000 0.0000
vn 0.0000 0.7071 0.7071
vn 0.0000 -0.7071 0.7071
vn 0.0000 0.7071 -0.7071
vn 0.0000 -0.7071 -0.7071
vn 0.6324 0.4472 -0.6324
vn 0.0000 1.0000 0.0000
vn 0.7071 0.0000 0.7071
vn 0.7071 0.0000 -0.7071
usemtl DYN_MESH_05.0
s 1
f 102/1/1 26/2/2 14/3/3
f 101/4/4 102/1/1 14/3/3
f 102/1/1 13/5/5 26/2/2
f 9/6/6 109/7/6 12/8/6
f 9/6/6 12/8/6 11/9/6
f 101/4/4 14/3/3 25/10/7
f 24/11/8 14/3/3 26/2/2
f 24/11/8 25/10/7 14/3/3
f 111/12/1 172/13/1 169/14/1
f 174/15/1 103/16/1 105/17/1
f 112/18/1 170/19/1 115/20/1
f 175/21/1 106/22/1 177/23/1
f 9/6/6 11/9/6 108/24/6
f 13/5/5 24/25/8 26/2/2
f 9/6/6 108/24/6 109/7/6
f 10/26/9 101/4/4 25/10/7
f 13/5/5 10/26/9 24/25/8
f 10/26/9 25/10/7 24/25/8
f 171/27/10 173/28/10 44/29/10
f 107/30/10 104/31/10 133/32/10
f 36/33/11 110/34/11 113/35/11
f 53/36/11 176/37/11 60/38/11
f 35/39/12 34/40/12 135/41/12
f 178/42/12 51/43/12 179/44/12
f 33/45/13 114/46/13 116/47/13
f 50/48/13 52/49/13 128/50/13
f 113/35/11 131/51/11 36/33/11
f 60/38/11 61/52/11 53/36/11
f 44/29/10 42/53/10 171/27/10
f 133/32/10 59/54/10 107/30/10
f 116/47/13 43/55/13 33/45/13
f 128/50/13 137/56/13 50/48/13
f 135/41/12 41/57/12 35/39/12
f 179/44/12 58/58/12 178/42/12
f 118/59/1 79/60/2 76/61/3
f 117/62/4 118/59/1 76/61/3
f 118/59/1 119/63/5 79/60/2
f 71/64/6 75/65/6 74/66/6
f 71/64/6 74/66/6 72/67/6
f 117/62/4 76/61/3 78/68/7
f 77/69/8 78/68/7 76/61/3
f 77/69/8 76/61/3 79/60/2
f 119/63/5 77/70/8 79/60/2
f 71/64/6 120/71/6 75/65/6
f 71/64/6 72/67/6 120/71/6
f 73/72/9 117/62/4 78/68/7
f 119/63/5 73/72/9 77/70/8
f 73/72/9 78/68/7 77/70/8
f 121/73/1 23/74/2 8/75/3
f 3/76/4 121/73/1 8/75/3
f 121/73/1 122/77/5 23/74/2
f 1/78/6 5/79/6 4/80/6
f 1/78/6 4/80/6 180/81/6
f 3/76/4 8/75/3 7/82/7
f 8/83/3 182/84/14 7/82/7
f 8/83/3 23/74/2 6/85/15
f 122/77/5 181/86/16 23/74/2
f 1/78/6 123/87/6 5/79/6
f 1/78/6 180/81/6 124/88/6
f 125/89/17 3/76/4 7/82/7
f 122/77/5 2/90/16 181/86/16
f 125/89/17 7/82/7 182/84/14
f 42/53/10 44/29/10 40/91/10
f 59/54/10 133/32/10 132/92/10
f 131/51/11 113/35/11 126/93/11
f 61/52/11 60/38/11 56/94/11
f 41/57/12 135/41/12 134/95/12
f 58/58/12 179/44/12 183/96/12
f 43/55/13 116/47/13 127/97/13
f 137/56/13 128/50/13 129/98/13
f 126/93/11 130/99/11 131/51/11
f 56/94/11 57/100/11 61/52/11
f 40/91/10 38/101/10 42/53/10
f 132/92/10 55/102/10 59/54/10
f 127/97/13 39/103/13 43/55/13
f 129/98/13 136/104/13 137/56/13
f 134/95/12 37/105/12 41/57/12
f 183/96/12 54/106/12 58/58/12
f 65/107/1 70/108/2 68/109/3
f 184/110/4 65/107/1 68/109/3
f 65/107/1 66/111/5 70/108/2
f 62/112/6 138/113/6 139/114/6
f 62/112/6 139/114/6 63/115/6
f 184/110/4 68/109/3 67/116/7
f 68/117/3 70/108/2 140/118/15
f 68/117/3 141/119/14 67/116/7
f 66/111/5 69/120/16 70/108/2
f 62/112/6 142/121/6 138/113/6
f 62/112/6 63/115/6 143/122/6
f 144/123/17 184/110/4 67/116/7
f 66/111/5 64/124/16 69/120/16
f 144/123/17 67/116/7 141/119/14
f 146/125/1 22/126/2 27/127/3
f 145/128/4 146/125/1 27/127/3
f 146/125/1 147/129/5 22/126/2
f 15/130/6 19/131/6 18/132/6
f 15/130/6 18/132/6 16/133/6
f 145/128/4 27/127/3 20/134/7
f 27/135/3 22/126/2 185/136/15
f 27/135/3 186/137/14 20/134/7
f 147/129/5 21/138/16 22/126/2
f 15/130/6 148/139/6 19/131/6
f 15/130/6 16/133/6 149/140/6
f 150/141/17 145/128/4 20/134/7
f 147/129/5 17/142/16 21/138/16
f 150/141/17 20/134/7 186/137/14
f 38/101/10 40/91/10 154/143/10
f 55/102/10 132/92/10 187/144/10
f 130/99/11 126/93/11 151/145/11
f 57/100/11 56/94/11 190/146/11
f 37/105/12 134/95/12 164/147/12
f 54/106/12 183/96/12 167/148/12
f 39/103/13 127/97/13 192/149/13
f 136/104/13 129/98/13 193/150/13
f 151/145/11 153/151/11 130/99/11
f 190/146/11 188/152/11 57/100/11
f 154/143/10 165/153/10 38/101/10
f 187/144/10 168/154/10 55/102/10
f 192/149/13 152/155/13 39/103/13
f 193/150/13 48/156/13 136/104/13
f 164/147/12 29/157/12 37/105/12
f 167/148/12 194/158/12 54/106/12
f 83/159/1 88/160/2 87/161/3
f 81/162/4 83/159/1 87/161/3
f 83/159/1 84/163/5 88/160/2
f 80/164/6 155/165/6 156/166/6
f 80/164/6 156/166/6 157/167/6
f 81/162/4 87/161/3 85/168/7
f 87/169/3 88/160/2 159/170/15
f 87/169/3 86/171/14 85/168/7
f 84/163/5 158/172/16 88/160/2
f 80/164/6 161/173/6 155/165/6
f 80/164/6 157/167/6 162/174/6
f 82/175/17 81/162/4 85/168/7
f 84/163/5 160/176/16 158/172/16
f 82/175/17 85/168/7 86/171/14
f 28/177/9 32/178/9 31/179/9
f 28/177/9 163/180/9 32/178/9
f 45/181/9 49/182/9 189/183/9
f 45/181/9 166/184/9 49/182/9
f 28/177/9 31/179/9 191/185/9
f 28/177/9 191/185/9 30/186/9
f 45/181/9 189/183/9 46/187/9
f 45/181/9 46/187/9 47/188/9
usemtl DYN_MESH_05.1
f 91/189/4 90/190/4 89/191/5
f 92/192/5 89/191/5 91/189/4
f 94/193/5 95/194/5 93/195/4
f 93/195/4 96/196/4 95/194/5
f 99/197/4 100/198/4 98/199/4
f 98/199/4 97/200/4 99/197/4
